<svg width="1029" height="725" viewBox="0 0 1029 725" fill="none" xmlns="http://www.w3.org/2000/svg">
<path opacity="0.13" d="M13.8185 646.833C7.47078 636.869 3.53846 625.625 2.32075 613.957C0.869852 603.204 0.101873 592.374 0.0212028 581.529C-0.198391 560.18 1.28803 538.845 4.46699 517.72C10.0714 475.323 20.351 433.638 35.1276 393.39C64.6492 309.609 111.623 232.684 173.1 167.444C205.664 132.99 242.722 102.846 283.325 77.7825C325.581 52.1504 371.297 32.3842 419.151 19.0544C467.392 6.15361 517.22 -0.232079 567.242 0.0760711L604.341 1.27155L640.674 5.15688C652.784 6.30773 664.813 8.15398 676.7 10.686L712.113 17.4106H714.566L720.545 19.5027C800.34 45.2827 871.414 91.7805 926.124 153.995C981.554 217.416 1016.49 295.408 1026.54 378.148C1031.65 421.132 1028.79 464.662 1018.11 506.662C1006.77 551.255 984.99 592.684 954.485 627.705C946.659 636.678 938.261 645.163 929.343 653.109C920.298 660.88 910.64 668.053 900.982 674.927C891.324 681.801 880.746 687.33 870.322 692.411C859.965 697.484 849.318 701.974 838.435 705.86C797.729 720.046 754.496 726.045 711.347 723.493H701.535C672.629 719.172 644.719 709.968 619.058 696.296C590.994 681.458 566.974 660.298 548.999 634.579C531.253 609.292 520.967 579.742 519.264 549.149C517.561 518.556 524.506 488.095 539.341 461.084C554.868 432.516 581.299 411.046 612.926 401.31C628.255 396.98 644.369 395.96 660.143 398.322C675.732 400.865 690.518 406.845 703.375 415.805C717.162 425.463 727.036 439.53 731.276 455.555C735.126 470.205 733.552 485.71 726.83 499.34C723.588 506.164 718.944 512.267 713.186 517.272C707.045 522.762 699.248 526.169 690.957 526.985C683.263 527.65 675.571 525.696 669.188 521.456C664.19 517.962 659.836 513.667 656.311 508.754L664.742 499.938C667.458 502.881 670.838 505.169 674.616 506.621C678.394 508.073 682.466 508.65 686.511 508.306C690.331 507.088 693.756 504.916 696.446 502.005C699.136 499.095 700.996 495.548 701.842 491.719C704.43 483.679 704.106 475.017 700.925 467.182C697.743 459.348 691.897 452.816 684.365 448.681C676.331 444.656 667.485 442.411 658.457 442.106C649.385 442.044 640.384 443.667 631.936 446.888C615.077 454.069 601.802 467.439 594.99 484.098C588.051 501.112 585.815 519.603 588.505 537.724C591.195 555.844 598.717 572.959 610.32 587.357C622.824 601.413 638.137 612.836 655.322 620.93C672.508 629.023 691.206 633.617 710.273 634.43H709.2C740.057 633.794 770.521 627.561 799.036 616.049C827.183 604.662 851.803 586.327 870.475 562.85C888.501 538.623 901.346 511.11 908.246 481.947C915.146 452.784 915.96 422.567 910.64 393.091C901.406 333.046 874.818 276.806 833.989 230.954C792.583 185.202 739.786 150.618 680.686 130.533H681.606C604.21 110.199 522.948 108.2 444.6 124.705C405.673 133.539 368.101 147.305 332.842 165.651C297.65 184.476 264.87 207.299 235.188 233.644C175.803 287.216 126.466 350.479 89.3968 420.587C70.3553 455.429 54.3554 491.77 41.5663 529.227C35.259 547.88 30.1391 566.894 26.236 586.162C24.3065 595.637 22.9753 605.219 22.2501 614.854C21.2222 623.702 22.1101 632.661 24.8563 641.154L13.8185 646.833Z" fill="url(#paint0_linear_143_137)"/>
<defs>
<linearGradient id="paint0_linear_143_137" x1="1029.47" y1="362.626" x2="-0.469073" y2="362.626" gradientUnits="userSpaceOnUse">
<stop stop-color="white" stop-opacity="0.25"/>
<stop offset="0.718152" stop-color="white" stop-opacity="0"/>
</linearGradient>
</defs>
</svg>
