<svg width="158" height="48" viewBox="0 0 158 48" fill="none" xmlns="http://www.w3.org/2000/svg">
<path d="M1 47H5.18973C5.98845 47 6.71058 46.5248 7.02656 45.7912L16.0793 24.7748C16.3953 24.0413 17.1174 23.566 17.9162 23.566H23.3633C23.7408 23.566 24.1107 23.6729 24.43 23.8743L39.1457 33.1531C39.9184 33.6404 40.923 33.5421 41.5867 32.9144L46.6074 28.1657C47.3007 27.51 48.3606 27.4354 49.1389 27.9875L53.9459 31.3974C54.6575 31.9022 55.6141 31.8874 56.3098 31.361L64.1174 25.4534C64.2504 25.3528 64.3954 25.2692 64.5491 25.2046L71.7954 22.1585C72.2946 21.9487 72.6874 21.5453 72.884 21.0407L78.7111 6.08139C78.8966 5.60505 79.2575 5.21784 79.7196 4.9993L86.3727 1.85302C87.3696 1.38159 88.56 1.806 89.0337 2.80178L96.1289 17.7146C96.3271 18.131 96.663 18.4662 97.0799 18.6633L110.53 25.0239C110.912 25.2046 111.341 25.2596 111.757 25.181L119.321 23.7501C119.934 23.6341 120.458 23.2385 120.738 22.6806L126.991 10.1947C127.683 8.81322 129.613 8.70452 130.455 9.99953L135.441 17.6627C135.731 18.1081 136.186 18.4199 136.706 18.5292L143.14 19.8814C143.775 20.0149 144.306 20.4487 144.564 21.0446L151.89 37.9826C152.207 38.7147 152.928 39.1887 153.726 39.1887H157" stroke="#333333" stroke-width="2" stroke-linecap="round" stroke-linejoin="round"/>
</svg>
