<svg width="202" height="29" viewBox="0 0 202 29" fill="none" xmlns="http://www.w3.org/2000/svg">
<path d="M7.21297 21.96V-1.90735e-06H0.0129688V28H28.813V21.96H7.21297ZM65.4473 13.96V-1.90735e-06H58.2473V13.96C58.2473 17.84 57.1673 22.36 47.8473 22.36C38.5273 22.36 37.4473 17.88 37.4473 13.96V-1.90735e-06H30.2473V13.96C30.2473 23.72 35.5273 28.4 47.8473 28.4C60.1273 28.4 65.4473 23.68 65.4473 13.96ZM111.33 -1.90735e-06H101.61L89.8905 19.76L78.1705 -1.90735e-06H68.4505V28H75.6505V8.8L87.2905 28H92.4905L104.13 8.8V28H111.33V-1.90735e-06ZM121.744 -1.90735e-06H114.544V28H121.744V-1.90735e-06ZM153.815 -1.90735e-06V21.04L134.695 -1.90735e-06H124.935V28H132.135V7L151.215 28H161.015V-1.90735e-06H153.815ZM193.418 28H201.378L186.898 -1.90735e-06H177.178L162.738 28H170.658L173.658 22.04H190.418L193.418 28ZM176.338 16.68L182.058 5.32L187.738 16.68H176.338Z" fill="url(#paint0_linear_26_735)"/>
<defs>
<linearGradient id="paint0_linear_26_735" x1="0.571684" y1="27.3334" x2="203.085" y2="26.1435" gradientUnits="userSpaceOnUse">
<stop stop-color="#016DB0"/>
<stop offset="1" stop-color="#01FFCA"/>
</linearGradient>
</defs>
</svg>
