<svg width="158" height="48" viewBox="0 0 158 48" fill="none" xmlns="http://www.w3.org/2000/svg">
<g clip-path="url(#clip0_385_92)">
<path d="M65.6728 29.8262V32.8674H51.1252V18.75H54.7541V29.8262H65.6728Z" fill="#449EB6"/>
<path d="M76.3025 33.0594C70.0724 33.0594 67.4069 30.6905 67.4069 25.7927V18.75H71.0358V25.7927C71.0358 27.7774 71.5817 30.0183 76.3025 30.0183C81.0232 30.0183 81.5691 27.7454 81.5691 25.7927V18.75H85.198V25.7927C85.198 30.6905 82.5004 33.0594 76.3025 33.0594Z" fill="#449EB6"/>
<path d="M109.38 32.8674H105.751V23.1997L99.8739 32.8674H97.2406L91.3638 23.1997V32.8674H87.7349V18.75H92.6483L98.5573 28.7058L104.466 18.75H109.38V32.8674Z" fill="#449EB6"/>
<path d="M115.674 32.8674H112.045V18.75H115.674V32.8674Z" fill="#449EB6"/>
<path d="M136.516 18.75V32.8674H131.57L121.936 22.3033V32.8674H118.307V18.75H123.253L132.919 29.346V18.75H136.516Z" fill="#449EB6"/>
<path d="M152.38 29.8582H143.902L142.393 32.8674H138.411L145.7 18.75H150.614L157.936 32.8674H153.921L152.38 29.8582ZM151.031 27.1692L148.173 21.439L145.283 27.1692H151.031Z" fill="#449EB6"/>
<path d="M7 12H23.5L33.5 36.5L7 38V12Z" fill="white"/>
<path d="M31.3752 9.43599V10.1082L33.0773 11.2287L31.1504 11.9009L30.6045 13.8857L29.3521 12.2531L27.2968 12.3491L28.4529 10.6845L27.7143 8.76373L29.6732 9.33995L30.2834 8.82776L19.5573 2.64941L0.0963745 13.9177V36.4222L19.6537 47.6585L39.211 36.4222V13.9177L31.3752 9.43599ZM12.1069 15.7424L17.3736 12.7332V29.2835H12.1069V15.7424ZM17.4057 36.8064H12.1069V31.4924H17.4057V36.8064ZM22.2228 36.8064H19.6537V31.4924H31.4395L22.2228 36.8064Z" fill="#3E97B6"/>
<path d="M33.6874 0.21582L34.5224 1.94448L36.4813 2.23259L35.0683 3.5771L35.3894 5.49783L33.6874 4.60148L31.9533 5.49783L32.2744 3.5771L30.8935 2.23259L32.8203 1.94448L33.6874 0.21582Z" fill="#3E97B6"/>
<path d="M34.2976 6.71411L35.4858 7.16227L36.5777 6.45801L36.4814 7.73849L37.509 8.5388L36.2566 8.85892L35.8391 10.0754L35.1326 8.98697L33.848 8.95496L34.6509 7.93057L34.2976 6.71411Z" fill="#3E97B6"/>
</g>
<defs>
<clipPath id="clip0_385_92">
<rect width="158" height="47.6981" fill="white" transform="translate(0 0.151367)"/>
</clipPath>
</defs>
</svg>
