<svg width="131" height="109" viewBox="0 0 131 109" fill="none" xmlns="http://www.w3.org/2000/svg">
<circle cx="13.2847" cy="9.37934" r="7.59126" fill="white"/>
<circle cx="125.256" cy="78.3331" r="5.69344" fill="white"/>
<circle cx="2.84672" cy="82.4454" r="2.84672" fill="#F5A647"/>
<path d="M49.7178 17.2474C52.6239 9.88433 54.077 6.20279 56.8493 3.77712C59.2184 1.70416 62.4348 0.338734 65.5717 0.0743244C69.2423 -0.235075 73.0484 1.33814 80.6605 4.48456L95.5108 10.6229C99.1498 12.127 100.969 12.8791 102.545 14.0807C103.889 15.1057 105.178 16.4996 106.094 17.9197C107.169 19.5846 107.743 21.355 108.891 24.8957C112.277 35.3342 116.936 51.1343 116.936 59.0338C116.936 67.0408 110.49 79.017 105.918 86.5049C104.569 88.7139 103.894 89.8184 102.76 91.0036C101.847 91.9576 100.485 93.023 99.3392 93.6794C97.9157 94.495 96.4881 94.9445 93.6329 95.8435L78.8491 100.498C71.7969 102.719 68.2708 103.829 64.894 103.364C62.0167 102.969 59.0604 101.609 56.8877 99.6815C54.3377 97.4196 52.9529 94.176 50.1833 87.6889C44.8445 75.184 39.009 59.9022 39.009 52.8486C39.009 45.9996 44.511 30.4393 49.7178 17.2474Z" fill="white"/>
<path d="M20.572 23.3992C29.7361 15.438 35.3184 7.51339 39.6589 5.22042C40.2242 4.92181 40.7818 4.63205 41.3316 4.35089C46.4705 1.72313 49.0399 0.409251 53.6015 0.934737C56.8878 1.31331 61.6749 3.96768 63.7367 6.55455C66.5986 10.1453 66.905 13.718 67.5178 20.8635C68.4763 32.04 69.3623 43.8916 69.3623 49.5145C69.3623 58.317 67.191 84.0544 65.9693 97.8394C65.67 101.217 66.4183 92.7735 63.6225 96.3242C62.7325 97.4544 55.1228 101.792 53.6967 101.981C49.217 102.578 66.458 110.828 59.5616 107.528C57.694 106.634 55.3003 105.35 52.2443 103.553C38.5035 95.4767 17.3047 82.2046 7.74695 65.2919C-0.145364 51.3262 5.55864 36.4418 20.572 23.3992Z" fill="#007688"/>
<circle cx="61.9953" cy="51.1315" r="45.5476" fill="#181C33"/>
<path fill-rule="evenodd" clip-rule="evenodd" d="M44.1334 38.4795C44.1334 46.4956 50.3701 53.088 58.2641 53.6953C58.2641 51.5332 60.0046 49.9455 61.9952 49.9455C63.9882 49.9455 65.7263 51.5351 65.7263 53.6953C73.6203 53.088 79.857 46.4956 79.857 38.4795V37.2934H71.7475L70.0164 32.0667C69.5324 30.6051 68.1691 29.623 66.624 29.623H57.3665C55.8213 29.623 54.4579 30.6051 53.974 32.0666L52.2429 37.2934H44.1334V38.4795ZM56.2357 32.8098C56.397 32.3226 56.8515 31.9953 57.3665 31.9953H66.6239C67.1389 31.9953 67.5933 32.3226 67.7547 32.8099L69.2396 37.2934H54.7508L56.2357 32.8098ZM41.752 66.5513V64.9698H82.2387V66.5513C82.2387 68.5135 80.6361 70.1097 78.6663 70.1097H45.3243C43.3545 70.1097 41.752 68.5135 41.752 66.5513ZM60.6458 53.662V56.1924C60.6458 56.9337 61.2512 57.5367 61.9953 57.5367C62.7395 57.5367 63.3449 56.9337 63.3449 56.1924V53.662C63.3449 52.9208 62.7395 52.3177 61.9953 52.3177C61.2512 52.3177 60.6458 52.9208 60.6458 53.662ZM82.2387 38.4795V62.5976H41.752V38.4795C41.752 47.8679 49.0792 55.4696 58.2642 56.0733V56.1924C58.2642 58.2418 59.938 59.909 61.9953 59.909C64.0527 59.909 65.7264 58.2418 65.7264 56.1924V56.0733C74.9094 55.4698 82.2387 47.8699 82.2387 38.4795Z" fill="white"/>
</svg>
