<svg width="451" height="363" viewBox="0 0 451 363" fill="none" xmlns="http://www.w3.org/2000/svg">
<path d="M0.435805 187.13C2.129 129.061 2.9756 100.027 18.0926 71.7977C30.3854 48.842 53.9997 25.9063 77.3038 14.2878C105.962 0 140.049 0 208.223 0H276.662C322.452 0 345.347 0 373.453 13.6305C393.206 23.2098 426.9 56.9032 436.479 76.656C450.109 104.763 450.109 113.288 450.109 130.34C450.109 154.802 436.815 193.664 423.001 227.445C414.736 247.655 410.603 257.761 400.958 271.036C393.981 280.637 379.847 294.686 370.203 301.603C356.869 311.168 346.222 315.446 324.927 324.003C284.859 340.104 235.151 357.567 199.723 361.508C153.032 366.701 104.775 334.386 78.3387 312.831C57.4258 295.779 46.9694 287.254 45.9403 286.38C42.4727 283.436 46.6157 287.049 43.2272 284.014C42.2216 283.114 40.2757 281.3 36.3841 277.673C21.7791 264.062 4.54704 242.944 1.20322 216.98C0.263897 209.687 0.0791615 199.361 0.435805 187.13Z" fill="#4B62E7"/>
</svg>
