<svg width="199" height="107" viewBox="0 0 199 107" fill="none" xmlns="http://www.w3.org/2000/svg">
<path d="M76.8809 9.27054C51.7794 10.5844 27.8957 25.1357 12.7587 41.4755C0.452353 54.7878 -6.05875 74.1132 8.63242 88.1834C21.3021 100.332 43.2693 103.906 61.1446 105.677C79.0795 107.467 97.1424 106.653 114.931 104.457C145.009 100.737 200.599 90.0718 198.687 55.824C197.605 36.2077 178.49 17.0973 159.136 8.01762C135.793 -2.93007 108.226 -1.06458 83.5284 4.3128C58.4671 9.78084 34.6452 20.1299 19.0294 38.1696C6.39903 52.7579 -3.48893 76.4309 12.4515 92.122C26.5473 106 53.0914 106.52 72.4562 104.583C95.9275 102.236 119.316 98.7879 141.61 92.0766C162.061 85.9037 183.716 76.1677 193.769 58.8839C200.924 46.616 200.093 33.2372 187.139 24.1507C173.872 14.8306 154.52 12.2203 138.063 10.6517C119.985 8.94252 102.297 9.32293 84.405 11.6184C80.133 12.1776 75.8416 12.7189 71.5707 13.2439C69.6572 13.4709 70.3954 15.9669 72.2889 15.7392C84.2144 14.2889 96.0159 12.3539 108.081 12.1267C116.552 11.984 125.049 12.2368 133.515 12.849C151.086 14.112 171.22 16.7144 185.581 26.3117C202.846 37.8434 194.334 57.5989 181.853 68.9661C164.797 84.5032 138.163 91.3767 114.553 96.0701C92.154 100.513 67.1756 104.714 44.1157 102.012C32.9452 100.708 21.4705 97.1287 13.8792 89.6477C5.12323 81.012 6.39559 68.8884 10.0054 58.8344C18.8832 34.1834 44.0963 18.2871 71.4769 10.0832C97.8234 2.2047 128.504 -1.54618 154.81 8.98684C167.914 14.2345 178.325 23.1493 186.02 33.4995C192.141 41.7545 196.735 51.2449 195.539 61.1231C193.484 77.9908 172.799 87.5535 156.384 93.0049C137.19 99.3919 116.184 102.406 95.6779 103.686C76.5395 104.858 56.7734 103.83 38.1886 99.3067C27.8219 96.777 17.4249 92.7706 10.1185 85.7625C1.93765 77.9184 1.66191 67.081 5.45127 57.6508C10.5118 45.0375 22.5146 34.7695 34.6374 26.8908C46.6169 19.0931 61.5205 12.6297 76.8147 11.8252C78.7035 11.7346 78.8104 9.16414 76.8809 9.27054Z" fill="#019BB9"/>
</svg>
