<svg width="184" height="65" viewBox="0 0 184 65" fill="none" xmlns="http://www.w3.org/2000/svg">
<path d="M70.897 5.79523C47.7235 6.30199 25.8213 14.7241 12.0188 24.3105C0.797718 32.121 -5.00336 43.5851 8.72351 52.1465C20.5617 59.5386 40.8939 61.9148 57.4262 63.1696C74.0137 64.4365 90.6908 64.1504 107.099 63.0363C134.843 61.1484 186.078 55.3965 183.933 34.9316C182.716 23.2099 164.847 11.5909 146.868 5.95687C125.184 -0.836329 99.7379 -0.0275799 76.9829 2.90928C53.8924 5.89623 32.0008 11.8106 17.7749 22.4064C6.26865 30.9751 -2.6038 44.997 12.295 54.5399C25.4698 62.9803 49.9962 63.5839 67.8635 62.6419C89.5196 61.5004 111.087 59.7006 131.608 55.941C150.431 52.4822 170.328 46.91 179.423 36.7038C185.898 29.4597 184.981 21.4642 172.915 15.8969C160.556 10.1867 142.651 8.41458 127.43 7.29622C110.711 6.07605 94.3765 6.10755 77.8734 7.27993C73.9333 7.5665 69.9749 7.84221 66.0355 8.10833C64.2703 8.22271 64.9798 9.72084 66.7265 9.60583C77.7269 8.87197 88.6074 7.84741 99.75 7.84519C107.574 7.85365 115.426 8.09855 123.253 8.55755C139.499 9.50582 158.127 11.2819 171.5 17.1697C187.576 24.2443 179.931 35.9429 168.527 42.5905C152.943 51.6765 128.416 55.485 106.657 58.0256C86.0147 60.4299 62.9868 62.6614 41.6548 60.7939C31.3215 59.8919 20.6819 57.6283 13.5866 53.0787C5.40252 47.8268 6.44383 40.6039 9.66731 34.6422C17.5958 20.0253 40.7112 10.8151 65.9139 6.22059C90.1649 1.80895 118.465 -0.0908312 142.883 6.4876C155.045 9.76502 164.762 15.2017 171.985 21.4652C177.73 26.4606 182.079 32.1766 181.083 38.06C179.372 48.1062 160.369 53.5858 145.266 56.6585C127.606 60.2589 108.234 61.8257 89.3051 62.3633C71.6386 62.8514 53.3678 62.019 36.1497 59.1133C26.5453 57.4886 16.8965 54.982 10.0696 50.7179C2.42557 45.945 2.05101 39.4727 5.44724 33.8854C9.98252 26.412 20.9569 20.4153 32.0684 15.8463C43.0485 11.324 56.7446 7.63056 70.864 7.31945C72.6079 7.28625 72.6782 5.75306 70.897 5.79523Z" fill="#019BB9"/>
</svg>
